<?xml version="1.0" encoding="UTF-8"?>
<svg xmlns="http://www.w3.org/2000/svg" xmlns:xlink="http://www.w3.org/1999/xlink" width="16px" height="16px" viewBox="0 0 16 16" version="1.1">
<g id="surface1">
<path style=" stroke:none;fill-rule:nonzero;fill:rgb(69.411767%,35.294119%,90.980393%);fill-opacity:1;" d="M 6 0 C 7.320312 0 8.640625 0 10 0 C 10 0.988281 10 1.980469 10 3 C 9.671875 3 9.339844 3 9 3 C 9 3.328125 9 3.660156 9 4 C 10.320312 4 11.640625 4 13 4 C 13 4.328125 13 4.660156 13 5 C 13.328125 5 13.660156 5 14 5 C 14 5.660156 14 6.320312 14 7 C 14.328125 7 14.660156 7 15 7 C 15 7.328125 15 7.660156 15 8 C 15.328125 8 15.660156 8 16 8 C 16 9.320312 16 10.640625 16 12 C 15.671875 12 15.339844 12 15 12 C 15 12.328125 15 12.660156 15 13 C 14.671875 13 14.339844 13 14 13 C 14 13.328125 14 13.660156 14 14 C 13.671875 14 13.339844 14 13 14 C 13 14.328125 13 14.660156 13 15 C 9.699219 15 6.398438 15 3 15 C 3 14.671875 3 14.339844 3 14 C 2.671875 14 2.339844 14 2 14 C 2 13.671875 2 13.339844 2 13 C 1.671875 13 1.339844 13 1 13 C 1 12.671875 1 12.339844 1 12 C 0.671875 12 0.339844 12 0 12 C 0 10.679688 0 9.359375 0 8 C 0.328125 8 0.660156 8 1 8 C 1 7.671875 1 7.339844 1 7 C 1.328125 7 1.660156 7 2 7 C 2 6.339844 2 5.679688 2 5 C 2.328125 5 2.660156 5 3 5 C 3 4.671875 3 4.339844 3 4 C 4.320312 4 5.640625 4 7 4 C 7 3.671875 7 3.339844 7 3 C 6.671875 3 6.339844 3 6 3 C 6 2.011719 6 1.019531 6 0 Z M 6 0 "/>
<path style=" stroke:none;fill-rule:nonzero;fill:rgb(45.490196%,76.078433%,92.941177%);fill-opacity:1;" d="M 6 0 C 7.320312 0 8.640625 0 10 0 C 10 0.988281 10 1.980469 10 3 C 8.679688 3 7.359375 3 6 3 C 6 2.011719 6 1.019531 6 0 Z M 6 0 "/>
<path style=" stroke:none;fill-rule:nonzero;fill:rgb(42.745098%,23.137255%,64.705884%);fill-opacity:1;" d="M 3 14 C 6.300781 14 9.601562 14 13 14 C 13 14.328125 13 14.660156 13 15 C 9.699219 15 6.398438 15 3 15 C 3 14.671875 3 14.339844 3 14 Z M 3 14 "/>
<path style=" stroke:none;fill-rule:nonzero;fill:rgb(45.490196%,76.078433%,92.941177%);fill-opacity:1;" d="M 14 7 C 14.328125 7 14.660156 7 15 7 C 15 7.328125 15 7.660156 15 8 C 15.328125 8 15.660156 8 16 8 C 16 9.320312 16 10.640625 16 12 C 15.671875 12 15.339844 12 15 12 C 15 12.328125 15 12.660156 15 13 C 14.671875 13 14.339844 13 14 13 C 14 11.019531 14 9.039062 14 7 Z M 14 7 "/>
<path style=" stroke:none;fill-rule:nonzero;fill:rgb(45.490196%,76.078433%,92.941177%);fill-opacity:1;" d="M 1 7 C 1.328125 7 1.660156 7 2 7 C 2 8.980469 2 10.960938 2 13 C 1.671875 13 1.339844 13 1 13 C 1 12.671875 1 12.339844 1 12 C 0.671875 12 0.339844 12 0 12 C 0 10.679688 0 9.359375 0 8 C 0.328125 8 0.660156 8 1 8 C 1 7.671875 1 7.339844 1 7 Z M 1 7 "/>
<path style=" stroke:none;fill-rule:nonzero;fill:rgb(45.490196%,76.078433%,92.941177%);fill-opacity:1;" d="M 9 7 C 9.988281 7 10.980469 7 12 7 C 12 7.988281 12 8.980469 12 10 C 11.011719 10 10.019531 10 9 10 C 9 9.011719 9 8.019531 9 7 Z M 9 7 "/>
<path style=" stroke:none;fill-rule:nonzero;fill:rgb(45.490196%,76.078433%,92.941177%);fill-opacity:1;" d="M 4 7 C 4.988281 7 5.980469 7 7 7 C 7 7.988281 7 8.980469 7 10 C 6.011719 10 5.019531 10 4 10 C 4 9.011719 4 8.019531 4 7 Z M 4 7 "/>
<path style=" stroke:none;fill-rule:nonzero;fill:rgb(45.490196%,76.078433%,92.941177%);fill-opacity:1;" d="M 5 12 C 6.980469 12 8.960938 12 11 12 C 11 12.328125 11 12.660156 11 13 C 9.019531 13 7.039062 13 5 13 C 5 12.671875 5 12.339844 5 12 Z M 5 12 "/>
<path style=" stroke:none;fill-rule:nonzero;fill:rgb(70.980394%,96.862745%,100%);fill-opacity:1;" d="M 6 0 C 7.320312 0 8.640625 0 10 0 C 10 0.660156 10 1.320312 10 2 C 9.671875 2 9.339844 2 9 2 C 9 1.671875 9 1.339844 9 1 C 8.011719 1 7.019531 1 6 1 C 6 0.671875 6 0.339844 6 0 Z M 6 0 "/>
<path style=" stroke:none;fill-rule:nonzero;fill:rgb(83.529413%,56.862748%,94.901961%);fill-opacity:1;" d="M 9 4 C 10.320312 4 11.640625 4 13 4 C 13 4.328125 13 4.660156 13 5 C 11.679688 5 10.359375 5 9 5 C 9 4.671875 9 4.339844 9 4 Z M 9 4 "/>
<path style=" stroke:none;fill-rule:nonzero;fill:rgb(83.529413%,56.862748%,94.901961%);fill-opacity:1;" d="M 3 4 C 4.320312 4 5.640625 4 7 4 C 7 4.328125 7 4.660156 7 5 C 5.679688 5 4.359375 5 3 5 C 3 4.671875 3 4.339844 3 4 Z M 3 4 "/>
<path style=" stroke:none;fill-rule:nonzero;fill:rgb(70.980394%,96.862745%,100%);fill-opacity:1;" d="M 10 7 C 10.660156 7 11.320312 7 12 7 C 12 7.660156 12 8.320312 12 9 C 11.671875 9 11.339844 9 11 9 C 11 8.671875 11 8.339844 11 8 C 10.671875 8 10.339844 8 10 8 C 10 7.671875 10 7.339844 10 7 Z M 10 7 "/>
<path style=" stroke:none;fill-rule:nonzero;fill:rgb(70.980394%,96.862745%,100%);fill-opacity:1;" d="M 5 7 C 5.660156 7 6.320312 7 7 7 C 7 7.660156 7 8.320312 7 9 C 6.671875 9 6.339844 9 6 9 C 6 8.671875 6 8.339844 6 8 C 5.671875 8 5.339844 8 5 8 C 5 7.671875 5 7.339844 5 7 Z M 5 7 "/>
<path style=" stroke:none;fill-rule:nonzero;fill:rgb(70.980394%,96.862745%,100%);fill-opacity:1;" d="M 5 12 C 5.660156 12 6.320312 12 7 12 C 7 12.328125 7 12.660156 7 13 C 6.339844 13 5.679688 13 5 13 C 5 12.671875 5 12.339844 5 12 Z M 5 12 "/>
<path style=" stroke:none;fill-rule:nonzero;fill:rgb(26.666668%,52.549022%,88.627452%);fill-opacity:1;" d="M 0 10 C 0.328125 10 0.660156 10 1 10 C 1 10.660156 1 11.320312 1 12 C 0.671875 12 0.339844 12 0 12 C 0 11.339844 0 10.679688 0 10 Z M 0 10 "/>
<path style=" stroke:none;fill-rule:nonzero;fill:rgb(42.745098%,23.137255%,64.705884%);fill-opacity:1;" d="M 7 3 C 7.660156 3 8.320312 3 9 3 C 9 3.328125 9 3.660156 9 4 C 8.339844 4 7.679688 4 7 4 C 7 3.671875 7 3.339844 7 3 Z M 7 3 "/>
<path style=" stroke:none;fill-rule:nonzero;fill:rgb(26.666668%,52.549022%,88.627452%);fill-opacity:1;" d="M 6 2 C 6.660156 2 7.320312 2 8 2 C 8 2.328125 8 2.660156 8 3 C 7.339844 3 6.679688 3 6 3 C 6 2.671875 6 2.339844 6 2 Z M 6 2 "/>
<path style=" stroke:none;fill-rule:nonzero;fill:rgb(42.745098%,23.137255%,64.705884%);fill-opacity:1;" d="M 13 13 C 13.328125 13 13.660156 13 14 13 C 14 13.328125 14 13.660156 14 14 C 13.671875 14 13.339844 14 13 14 C 13 13.671875 13 13.339844 13 13 Z M 13 13 "/>
<path style=" stroke:none;fill-rule:nonzero;fill:rgb(42.745098%,23.137255%,64.705884%);fill-opacity:1;" d="M 2 13 C 2.328125 13 2.660156 13 3 13 C 3 13.328125 3 13.660156 3 14 C 2.671875 14 2.339844 14 2 14 C 2 13.671875 2 13.339844 2 13 Z M 2 13 "/>
<path style=" stroke:none;fill-rule:nonzero;fill:rgb(26.666668%,52.549022%,88.627452%);fill-opacity:1;" d="M 14 12 C 14.328125 12 14.660156 12 15 12 C 15 12.328125 15 12.660156 15 13 C 14.671875 13 14.339844 13 14 13 C 14 12.671875 14 12.339844 14 12 Z M 14 12 "/>
<path style=" stroke:none;fill-rule:nonzero;fill:rgb(45.490196%,76.078433%,92.941177%);fill-opacity:1;" d="M 10 12 C 10.328125 12 10.660156 12 11 12 C 11 12.328125 11 12.660156 11 13 C 10.671875 13 10.339844 13 10 13 C 10 12.671875 10 12.339844 10 12 Z M 10 12 "/>
<path style=" stroke:none;fill-rule:nonzero;fill:rgb(70.980394%,96.862745%,100%);fill-opacity:1;" d="M 9 12 C 9.328125 12 9.660156 12 10 12 C 10 12.328125 10 12.660156 10 13 C 9.671875 13 9.339844 13 9 13 C 9 12.671875 9 12.339844 9 12 Z M 9 12 "/>
<path style=" stroke:none;fill-rule:nonzero;fill:rgb(45.490196%,76.078433%,92.941177%);fill-opacity:1;" d="M 5 12 C 5.328125 12 5.660156 12 6 12 C 6 12.328125 6 12.660156 6 13 C 5.671875 13 5.339844 13 5 13 C 5 12.671875 5 12.339844 5 12 Z M 5 12 "/>
<path style=" stroke:none;fill-rule:nonzero;fill:rgb(26.666668%,52.549022%,88.627452%);fill-opacity:1;" d="M 1 12 C 1.328125 12 1.660156 12 2 12 C 2 12.328125 2 12.660156 2 13 C 1.671875 13 1.339844 13 1 13 C 1 12.671875 1 12.339844 1 12 Z M 1 12 "/>
<path style=" stroke:none;fill-rule:nonzero;fill:rgb(26.666668%,52.549022%,88.627452%);fill-opacity:1;" d="M 15 11 C 15.328125 11 15.660156 11 16 11 C 16 11.328125 16 11.660156 16 12 C 15.671875 12 15.339844 12 15 12 C 15 11.671875 15 11.339844 15 11 Z M 15 11 "/>
<path style=" stroke:none;fill-rule:nonzero;fill:rgb(70.980394%,96.862745%,100%);fill-opacity:1;" d="M 15 8 C 15.328125 8 15.660156 8 16 8 C 16 8.328125 16 8.660156 16 9 C 15.671875 9 15.339844 9 15 9 C 15 8.671875 15 8.339844 15 8 Z M 15 8 "/>
<path style=" stroke:none;fill-rule:nonzero;fill:rgb(69.411767%,35.294119%,90.980393%);fill-opacity:1;" d="M 10 8 C 10.328125 8 10.660156 8 11 8 C 11 8.328125 11 8.660156 11 9 C 10.671875 9 10.339844 9 10 9 C 10 8.671875 10 8.339844 10 8 Z M 10 8 "/>
<path style=" stroke:none;fill-rule:nonzero;fill:rgb(69.411767%,35.294119%,90.980393%);fill-opacity:1;" d="M 5 8 C 5.328125 8 5.660156 8 6 8 C 6 8.328125 6 8.660156 6 9 C 5.671875 9 5.339844 9 5 9 C 5 8.671875 5 8.339844 5 8 Z M 5 8 "/>
<path style=" stroke:none;fill-rule:nonzero;fill:rgb(70.980394%,96.862745%,100%);fill-opacity:1;" d="M 0 8 C 0.328125 8 0.660156 8 1 8 C 1 8.328125 1 8.660156 1 9 C 0.671875 9 0.339844 9 0 9 C 0 8.671875 0 8.339844 0 8 Z M 0 8 "/>
<path style=" stroke:none;fill-rule:nonzero;fill:rgb(70.980394%,96.862745%,100%);fill-opacity:1;" d="M 14 7 C 14.328125 7 14.660156 7 15 7 C 15 7.328125 15 7.660156 15 8 C 14.671875 8 14.339844 8 14 8 C 14 7.671875 14 7.339844 14 7 Z M 14 7 "/>
<path style=" stroke:none;fill-rule:nonzero;fill:rgb(70.980394%,96.862745%,100%);fill-opacity:1;" d="M 1 7 C 1.328125 7 1.660156 7 2 7 C 2 7.328125 2 7.660156 2 8 C 1.671875 8 1.339844 8 1 8 C 1 7.671875 1 7.339844 1 7 Z M 1 7 "/>
<path style=" stroke:none;fill-rule:nonzero;fill:rgb(83.529413%,56.862748%,94.901961%);fill-opacity:1;" d="M 13 5 C 13.328125 5 13.660156 5 14 5 C 14 5.328125 14 5.660156 14 6 C 13.671875 6 13.339844 6 13 6 C 13 5.671875 13 5.339844 13 5 Z M 13 5 "/>
<path style=" stroke:none;fill-rule:nonzero;fill:rgb(83.529413%,56.862748%,94.901961%);fill-opacity:1;" d="M 2 5 C 2.328125 5 2.660156 5 3 5 C 3 5.328125 3 5.660156 3 6 C 2.671875 6 2.339844 6 2 6 C 2 5.671875 2 5.339844 2 5 Z M 2 5 "/>
</g>
</svg>
